# File exported by Houdini 17.5.173 (www.sidefx.com)
# 77 points
# 450 vertices
# 150 primitives
# Bounds: [-9.73174095, -6.22893429, -7.84341574] to [10.0324402, 6.12634468, 7.86069822]
g 
v 6.63409138 3.94711971 -7.01835299
v 7.39079046 1.32170069 0.224910051
v 6.31108809 -6.02645922 -2.64418936
v 5.94383764 4.25073099 -2.18626428
v 9.13467693 0.308813393 -5.28095579
v 3.7856822 5.5157547 -6.9414649
v 0.522739053 3.98429632 5.44074821
v -1.19758999 2.46062756 6.57219744
v 10.0324402 -3.62405586 -7.30816603
v 9.27011585 -2.4603107 -2.00521731
v 9.02747726 -0.125831842 -7.32476521
v 8.4804163 -0.46442315 -0.583494484
v 7.1854229 -2.8048718 2.80997515
v 6.53730583 -5.48122883 1.2738421
v 5.47623539 -5.50622988 -7.79609728
v 2.48382401 -5.69738007 -7.84341574
v 2.75438046 -5.7358551 -2.83084536
v 3.06249523 -5.59629059 3.54998207
v -1.85536528 -5.81541729 -3.80189943
v -0.138102859 -5.80951262 2.96976495
v -1.78789294 -5.40046644 0.194470197
v 2.50312614 -5.51144314 4.9016118
v -2.77938747 4.7866168 4.84533501
v -5.59742975 1.84145391 6.74113512
v -6.36084223 4.69135332 -4.36285257
v -9.07573986 2.10901523 -0.177638263
v -9.63199043 0.519641161 2.98075747
v -6.94415951 3.53707099 4.28731871
v -8.61718464 0.429937929 5.87467766
v -5.46195269 -2.51498961 7.76574087
v -5.93511438 -5.08464527 0.382974178
v -1.63552201 -5.68462706 4.40350056
v -5.46529627 -4.35811996 6.94672298
v -8.68576527 0.123647712 -7.00307655
v -8.89224339 -2.77623367 -5.74960232
v -9.0597086 -1.43052351 -3.14197803
v -8.27205563 -4.67695713 0.163278624
v -9.73174095 -2.40477324 -1.25348604
v -7.78805208 -4.81744528 -4.67725134
v -6.73705769 -4.473948 5.88205624
v -9.31343079 -4.064219 3.09560132
v -0.78748101 6.12634468 -5.96229839
v 8.29676628 -4.06821585 -0.650194347
v 5.03072834 -3.54723191 4.8227582
v -8.21202087 3.31495118 1.97743022
v -9.55946732 -0.0485080853 -3.00938773
v -9.46644688 -1.25401556 4.75254107
v -7.00297594 -5.33640575 -2.86310196
v -3.78918719 -0.287107229 7.86069822
v 0.438181132 -4.06667852 6.15807962
v -8.71232128 1.83620381 -4.78037977
v 0.709628463 -6.16242218 -7.46750546
v 0.4677158 -2.13675475 7.10594177
v 4.29405403 -6.22893429 0.908768296
v 7.45722961 -6.07538605 -7.55483723
v 9.63799286 -4.08424473 -4.43250942
v 2.76885819 0.0306267664 6.41610193
v 6.39508104 0.147596419 4.06314802
v 7.15978336 3.09465337 -5.06041908
v 4.16345692 3.86453962 3.17906642
v -4.40470076 5.83026409 -2.5574398
v -1.64489818 -5.67175817 -7.56314707
v -2.08835578 5.88854408 -6.89325476
v -6.15356922 4.44059277 -6.95153475
v -7.0971303 -4.82675505 -7.61982632
v -8.91596031 -2.6995976 1.05015969
v -8.52327728 -2.56625962 6.03338957
v 2.0321691 5.95240068 -0.914233923
v -7.19788933 -5.64653397 3.45136666
v -5.3723402 -6.06449556 3.51741815
v -5.177145 -5.88626146 -7.26352978
v 7.86448336 -5.84732294 -3.76174307
v -0.432955146 5.8352313 1.56076324
v -4.03557682 -6.01386023 -2.04124784
v -8.96906471 -1.07138371 -5.41278553
v -8.84383869 -4.36717081 -2.67093849
v 3.35809374 -5.98819017 -7.30283546
vt 0.0440960974 0.684913754 0
vt 0.0518792793 0.64152354 0
vt 0.09832865 0.640170693 0
vt 0.418832213 0.413467199 0
vt 0.360482097 0.435258538 0
vt 0.36806047 0.355822831 0
vt 0.145372584 0.159355417 0
vt 0.234062076 0.171139762 0
vt 0.179566696 0.254050076 0
vt 0.511529028 0.500771821 0
vt 0.444134265 0.467361599 0
vt 0.551172853 0.453704774 0
vt 0.28859362 0.460474819 0
vt 0.722033143 0.650905609 0
vt 0.710891366 0.589135528 0
vt 0.824292183 0.60193491 0
vt 0.438688248 0.159552321 0
vt 0.365367591 0.0748145208 0
vt 0.450711757 0.110303327 0
vt 0.277352542 0.0524361953 0
vt 0.333284765 0.13953726 0
vt 0.27282849 0.146427885 0
vt 0.234012619 0.267512679 0
vt 0.282200605 0.326285809 0
vt 0.20710732 0.373387873 0
vt 0.225545242 0.791884482 0
vt 0.173866585 0.729504883 0
vt 0.263725877 0.697924733 0
vt 0.0980188176 0.725251555 0
vt 0.263345718 0.913290381 0
vt 0.313665241 0.810189545 0
vt 0.495421559 0.554674625 0
vt 0.436464906 0.526575744 0
vt 0.299948305 0.601766884 0
vt 0.444770098 0.720923841 0
vt 0.694459319 0.372300714 0
vt 0.778158545 0.417753726 0
vt 0.699793637 0.42504248 0
vt 0.709707081 0.0299620628 0
vt 0.767084539 0.0417813174 0
vt 0.666834116 0.0466332026 0
vt 0.225080401 0.0419542491 0
vt 0.645130217 0.0336232074 0
vt 0.595478654 0.056106057 0
vt 0.347506136 0.209967941 0
vt 0.295158595 0.231024623 0
vt 0.170147121 0.0503924154 0
vt 0.148539767 0.0353345498 0
vt 0.132401392 0.350217164 0
vt 0.0822971538 0.398012757 0
vt 0.822004557 0.525075853 0
vt 0.934752464 0.595017076 0
vt 0.561328888 0.733615577 0
vt 0.505352855 0.827102065 0
vt 0.0635888055 0.486760736 0
vt 0.15301837 0.602077663 0
vt 0.118672356 0.494773597 0
vt 0.340363294 0.891363859 0
vt 0.384050161 0.942514181 0
vt 0.324587822 0.924647331 0
vt 0.141424924 0.865214586 0
vt 0.108934976 0.78846395 0
vt 0.162301615 0.788285673 0
vt 0.400801837 0.583917081 0
vt 0.203523099 0.651423514 0
vt 0.293665946 0.750883818 0
vt 0.407537907 0.3192783 0
vt 0.407183886 0.872276902 0
vt 0.451463193 0.791958869 0
vt 0.434043616 0.934669971 0
vt 0.147794276 0.319574416 0
vt 0.0699748173 0.303871602 0
vt 0.300325364 0.521694839 0
vt 0.652694046 0.318257093 0
vt 0.376238078 0.265182585 0
vt 0.889405072 0.279712766 0
vt 0.793190002 0.319437891 0
vt 0.888717473 0.682869256 0
vt 0.794785082 0.723232687 0
vt 0.953381121 0.792506158 0
vt 0.875652969 0.919012666 0
vt 0.899873257 0.783685684 0
vt 0.237012327 0.549374998 0
vt 0.959559858 0.913515031 0
vt 0.965543151 0.676420212 0
vt 0.864130139 0.496337265 0
vt 0.034642756 0.131315529 0
vt 0.0306987315 0.234494954 0
vt 0.610905051 0.366662621 0
vt 0.653147936 0.553545713 0
vt 0.62829566 0.48156479 0
vt 0.69648087 0.545736372 0
vt 0.338937491 0.470612854 0
vt 0.384848624 0.503393471 0
vt 0.597351372 0.5210917 0
vt 0.830465257 0.853208482 0
vt 0.899083018 0.055168502 0
vt 0.851996899 0.0234367121 0
vt 0.101210997 0.0400795788 0
vt 0.673988044 0.753983021 0
vt 0.76383996 0.343816251 0
vt 0.488050073 0.110234521 0
vt 0.517261803 0.191670775 0
vt 0.527140439 0.309956342 0
vt 0.468846172 0.423488051 0
vt 0.530817389 0.377013713 0
vt 0.727460027 0.821322978 0
vt 0.657439411 0.940919399 0
vt 0.557680488 0.568406343 0
vt 0.944830298 0.172213137 0
vt 0.582880437 0.285553068 0
vt 0.560756087 0.693920732 0
vt 0.771333396 0.967380822 0
vt 0.85502398 0.968876004 0
vt 0.972507358 0.961031199 0
vt 0.456158996 0.247084767 0
vt 0.054066591 0.824959278 0
vt 0.204858899 0.883820236 0
vt 0.042542886 0.0367648304 0
vt 0.135021627 0.76528126 0
vt 0.545340776 0.0469917394 0
vn 0.503612936 0.653719723 -0.564822435
vn 0.828528464 0.494694084 0.262332618
vn 0.187671721 -0.980483353 0.0585805774
vn 0.645284176 0.752870381 0.129593462
vn 0.916648388 0.397061318 0.0458042696
vn 0.254411519 0.727031708 -0.637730002
vn 0.250781804 0.682636917 0.686378479
vn 0.103807099 0.420841396 0.901175082
vn 0.812119901 -0.199168012 -0.548446596
vn 0.954157412 -0.0666500553 0.29178983
vn 0.635971427 0.29423362 -0.713419139
vn 0.923439622 0.251162082 0.290132374
vn 0.830111742 -0.205151662 0.518485606
vn 0.565524638 -0.752135098 0.338340998
vn 0.00328521221 -0.612519383 -0.790448725
vn -0.0226380695 -0.244920567 -0.969278932
vn -0.0225858819 -0.999670148 -0.0122243874
vn 0.235283241 -0.940920234 0.243538231
vn -0.0225378573 -0.999590993 0.0176018365
vn -0.0252451114 -0.990763724 0.13322863
vn -0.161043406 -0.985589385 0.0517549515
vn 0.206904888 -0.803065181 0.558817208
vn -0.114271142 0.843962133 0.524089634
vn -0.281233639 0.476989806 0.832699656
vn -0.619638324 0.777059317 -0.110576324
vn -0.894340932 0.445610762 -0.0398161262
vn -0.959057331 0.247510836 0.137649447
vn -0.501296997 0.75901252 0.415453166
vn -0.686557353 0.326222211 0.649783134
vn -0.218483135 -0.177189603 0.959619164
vn -0.17773506 -0.983636916 -0.0294733476
vn 0.119002104 -0.941692233 0.314729065
vn -0.208768517 -0.628487945 0.749278724
vn -0.700116217 0.164495558 -0.694822609
vn -0.967663348 -0.252058864 -0.0096905604
vn -0.913523197 -0.294283807 -0.280842215
vn -0.595900893 -0.800548971 -0.0634298697
vn -0.976959944 -0.210719883 -0.0338575765
vn -0.748118877 -0.663422287 0.0137464423
vn -0.452330887 -0.708617747 0.541532815
vn -0.873596668 -0.479372799 0.0838476568
vn 0.0095920004 0.991331518 -0.131033674
vn 0.849103034 -0.440611631 0.291350901
vn 0.541114569 -0.38519758 0.747541428
vn -0.693371296 0.70352751 0.155837074
vn -0.990707636 0.0565420799 -0.123698875
vn -0.943619311 -0.0217565112 0.330317438
vn -0.443172008 -0.896265268 0.0175227206
vn -0.0227689724 0.16787678 0.98554498
vn 0.149634495 -0.61170131 0.776808143
vn -0.828602552 0.493514061 -0.264314443
vn -0.00615884364 -0.892897129 -0.450218588
vn 0.233454272 -0.170897797 0.957231939
vn -0.0254153498 -0.991781712 0.125391722
vn 0.202618882 -0.794086814 -0.573037267
vn 0.910383403 -0.37225318 0.180636778
vn 0.395086437 0.17400232 0.902014315
vn 0.732561409 0.249302715 0.63340497
vn 0.749292374 0.657274187 0.08094199
vn 0.521177351 0.708202779 0.476259053
vn -0.295662761 0.954954565 0.0254027955
vn -0.0621129051 -0.638258219 -0.767312407
vn -0.117942639 0.705106437 -0.699224114
vn -0.469674438 0.573517025 -0.671181202
vn -0.473419309 -0.48095277 -0.737942159
vn -0.963710666 -0.266748399 0.0103456546
vn -0.680382788 -0.281855315 0.676488578
vn 0.234960243 0.963515282 0.128187209
vn 0.0147386659 -0.976628721 0.214428261
vn -0.345501333 -0.936091423 0.0660429746
vn -0.158244297 -0.86281985 -0.480104864
vn 0.460425049 -0.876553535 0.14022392
vn 0.0527310967 0.971257389 0.232117444
vn -0.0734203905 -0.996892393 0.0285478085
vn -0.985096633 -0.126725912 -0.116297215
vn -0.645040452 -0.577794611 -0.500076234
vn -0.00558401039 -0.983095586 -0.183007985
g Aset_ham_meat_S_tgemdaapa_LOD5
f 40/1/40 33/2/33 30/3/30
f 39/4/39 35/5/35 65/6/65
f 17/7/17 3/8/3 54/9/54
f 37/10/37 76/11/76 31/12/31
f 34/13/34 65/6/65 35/5/35
f 7/14/7 8/15/8 57/16/57
f 5/17/5 9/18/9 11/19/11
f 55/20/55 56/21/56 72/22/72
f 14/23/14 13/24/13 44/25/44
f 27/26/27 29/27/29 28/28/28
f 67/29/67 30/3/30 29/27/29
f 38/30/38 27/26/27 26/31/26
f 37/10/37 66/32/66 38/33/38
f 23/34/23 61/35/61 28/28/28
f 20/36/20 50/37/50 32/38/32
f 52/39/52 62/40/62 16/41/16
f 17/7/17 15/42/15 3/8/3
f 77/43/77 16/41/16 15/44/15
f 56/21/56 10/45/10 72/22/72
f 13/24/13 14/23/14 43/46/43
f 77/47/77 17/7/17 16/48/16
f 22/49/22 44/25/44 50/50/50
f 57/16/57 53/51/53 44/52/44
f 61/35/61 63/53/63 64/54/64
f 33/2/33 50/55/50 30/3/30
f 49/56/49 30/3/30 53/57/53
f 46/58/46 75/59/75 36/60/36
f 41/61/41 67/62/67 47/63/47
f 73/64/73 61/35/61 23/34/23
f 24/65/24 29/27/29 49/56/49
f 28/28/28 45/66/45 27/26/27
f 39/4/39 65/6/65 71/67/71
f 51/68/51 26/31/26 25/69/25
f 46/58/46 51/68/51 34/70/34
f 17/7/17 18/71/18 20/72/20
f 23/34/23 7/73/7 73/64/73
f 15/44/15 62/40/62 6/74/6
f 10/45/10 5/17/5 12/75/12
f 43/46/43 72/22/72 10/45/10
f 44/25/44 18/71/18 14/23/14
f 64/76/64 63/77/63 6/74/6
f 64/54/64 34/70/34 25/69/25
f 25/69/25 26/31/26 45/66/45
f 58/78/58 60/79/60 7/14/7
f 12/80/12 59/81/59 2/82/2
f 49/56/49 53/57/53 8/83/8
f 5/84/5 59/81/59 12/80/12
f 7/73/7 23/34/23 8/83/8
f 13/85/13 12/80/12 58/78/58
f 14/23/14 3/8/3 43/46/43
f 3/8/3 14/23/14 54/9/54
f 57/16/57 44/52/44 58/78/58
f 50/86/50 44/52/44 53/51/53
f 19/87/19 20/72/20 21/88/21
f 21/89/21 20/36/20 32/38/32
f 61/35/61 25/69/25 45/66/45
f 25/69/25 34/70/34 51/68/51
f 46/58/46 26/31/26 51/68/51
f 40/90/40 31/12/31 70/91/70
f 70/91/70 33/92/33 40/90/40
f 75/93/75 39/4/39 36/94/36
f 76/11/76 38/33/38 36/94/36
f 38/30/38 46/58/46 36/60/36
f 67/29/67 40/1/40 30/3/30
f 69/95/69 31/12/31 40/90/40
f 59/81/59 4/96/4 2/82/2
f 13/85/13 58/78/58 44/52/44
f 22/49/22 50/50/50 20/72/20
f 70/91/70 21/89/21 32/38/32
f 65/97/65 62/40/62 71/98/71
f 24/65/24 8/83/8 23/34/23
f 17/7/17 52/99/52 16/48/16
f 14/23/14 18/71/18 54/9/54
f 77/47/77 15/42/15 17/7/17
f 7/14/7 60/79/60 73/100/73
f 7/14/7 57/16/57 58/78/58
f 63/77/63 42/101/42 6/74/6
f 56/21/56 9/18/9 5/17/5
f 56/21/56 5/17/5 10/45/10
f 9/102/9 15/44/15 11/103/11
f 19/104/19 48/105/48 71/67/71
f 74/106/74 21/89/21 31/12/31
f 68/107/68 42/108/42 73/100/73
f 73/100/73 60/79/60 68/107/68
f 69/95/69 41/109/41 37/10/37
f 62/40/62 65/97/65 64/76/64
f 2/82/2 60/79/60 58/78/58
f 64/76/64 65/97/65 34/110/34
f 62/40/62 15/44/15 16/41/16
f 6/74/6 1/111/1 15/44/15
f 1/111/1 11/103/11 15/44/15
f 62/40/62 64/76/64 6/74/6
f 74/106/74 31/12/31 48/105/48
f 26/31/26 27/26/27 45/66/45
f 49/56/49 8/83/8 24/65/24
f 42/112/42 63/53/63 61/35/61
f 17/7/17 20/72/20 19/87/19
f 72/22/72 43/46/43 3/8/3
f 43/46/43 10/45/10 12/75/12
f 60/79/60 2/82/2 4/96/4
f 6/113/6 4/96/4 59/81/59
f 1/114/1 5/84/5 11/115/11
f 68/107/68 4/96/4 6/113/6
f 32/38/32 50/37/50 33/92/33
f 28/28/28 24/65/24 23/34/23
f 71/67/71 62/116/62 19/104/19
f 41/61/41 40/117/40 67/62/67
f 27/26/27 38/30/38 66/118/66
f 47/63/47 29/27/29 27/26/27
f 30/3/30 49/56/49 29/27/29
f 59/81/59 1/114/1 6/113/6
f 31/12/31 69/95/69 37/10/37
f 41/109/41 66/32/66 37/10/37
f 38/33/38 76/11/76 37/10/37
f 75/93/75 34/13/34 35/5/35
f 31/12/31 21/89/21 70/91/70
f 74/106/74 48/105/48 19/104/19
f 61/35/61 45/66/45 28/28/28
f 54/9/54 18/71/18 17/7/17
f 72/22/72 3/8/3 15/42/15
f 56/21/56 55/20/55 9/18/9
f 2/82/2 58/78/58 12/80/12
f 42/112/42 61/35/61 73/64/73
f 19/87/19 52/99/52 17/7/17
f 19/87/19 62/119/62 52/99/52
f 66/118/66 41/61/41 27/26/27
f 67/29/67 29/27/29 47/120/47
f 69/95/69 40/90/40 41/109/41
f 34/70/34 75/59/75 46/58/46
f 25/69/25 61/35/61 64/54/64
f 36/94/36 39/4/39 48/105/48
f 41/61/41 47/63/47 27/26/27
f 32/38/32 33/92/33 70/91/70
f 50/55/50 53/57/53 30/3/30
f 18/71/18 44/25/44 22/49/22
f 72/22/72 15/42/15 55/20/55
f 13/24/13 43/46/43 12/75/12
f 55/121/55 15/44/15 9/102/9
f 6/113/6 42/108/42 68/107/68
f 4/96/4 68/107/68 60/79/60
f 38/30/38 26/31/26 46/58/46
f 28/28/28 29/27/29 24/65/24
f 71/67/71 48/105/48 39/4/39
f 48/105/48 76/11/76 36/94/36
f 35/5/35 39/4/39 75/93/75
f 22/49/22 20/72/20 18/71/18
f 31/12/31 76/11/76 48/105/48
f 21/89/21 74/106/74 19/104/19
f 57/16/57 8/15/8 53/51/53
f 5/84/5 1/114/1 59/81/59
