# File exported by Houdini 17.0.416 (www.sidefx.com)
# 22 points
# 120 vertices
# 40 primitives
# Bounds: [-9.92058659, 0.341615677, -6.45769644] to [9.12595844, 22.4116325, 4.73410845]
g 
v 0.581725001 15.5269928 -4.62418938
v 4.89257336 0.341615677 -4.38869429
v 9.12595844 15.8931074 -6.32324171
v 8.23383045 10.0683718 -1.19960642
v 7.17946625 19.6405144 -1.16409051
v 4.2034111 6.58544302 1.92677927
v 6.04825306 13.3119287 4.41170216
v 1.08592844 4.70725298 -3.03713489
v 2.16678572 20.4195633 -5.01973915
v 5.06412029 0.389081001 4.46853304
v 0.600148439 16.6491604 2.80586815
v 1.57341397 22.4116325 1.59450388
v -3.52187848 1.11356735 3.81692839
v 0.138511479 7.64456367 4.73410845
v -3.75767732 0.34941864 -3.99700522
v -8.16497326 16.2460556 -6.45769644
v -3.51767087 20.3511963 -1.73029077
v -3.62400484 7.46125603 0.466950417
v -7.53276253 10.878952 -3.96828699
v -9.92058659 17.9583683 -1.97234893
v -6.44824982 8.42773056 2.90240812
v -8.01380444 13.8576632 1.14720511
vt 0.408166289 0.0819236189 0
vt 0.224611014 0.110485122 0
vt 0.302594125 -0.0169586577 0
vt 0.728108585 0.788452506 0
vt 0.741830349 0.633172512 0
vt 0.909281313 0.790169954 0
vt 0.711571395 0.504637659 0
vt 0.59928745 0.402458459 0
vt 0.777776718 0.269430161 0
vt 0.624913335 0.214768618 0
vt 0.752996325 0.101142831 0
vt 0.621932268 0.516847908 0
vt 0.508819103 0.657310665 0
vt 0.410052091 0.52334398 0
vt 0.0752527118 0.170473263 0
vt 0.126877934 0.333366603 0
vt 0.0171775203 0.319652557 0
vt 0.570436001 0.329951257 0
vt 0.304081887 0.243124008 0
vt 0.337234348 0.714936554 0
vt 0.293935865 0.598520696 0
vt 0.476834178 0.422624111 0
vt 0.595925391 0.649012446 0
vt 0.351003855 0.484065592 0
vt 0.303569019 0.556060135 0
vt 0.206807569 0.433110923 0
vt 0.821750045 0.621230781 0
vt 0.841548681 0.479298413 0
vt 0.971726716 0.526357472 0
vt 0.36123395 0.932248414 0
vt 0.226462111 0.875926554 0
vt 0.436564654 0.777208865 0
vt 0.563681722 0.855329335 0
vt 0.563475192 0.738869071 0
vt 0.890609384 0.175310403 0
vt 0.819657385 0.0550990365 0
vt 0.248434559 0.696328819 0
vt 0.0510845073 0.50122273 0
vt 0.247656927 0.495393336 0
vt 0.918767154 0.58067739 0
vt 0.941354573 0.312316507 0
vt 0.474984407 0.943834364 0
vt 0.0313408598 0.412908554 0
vt 0.610137761 0.0602022894 0
vt 0.748063564 -0.000176198155 0
vt 0.728390574 0.141569525 0
vt 0.0527852625 0.68045789 0
vt 0.49164626 0.45169276 0
vt 0.96261853 0.469631732 0
vt 0.282695115 0.743023753 0
vt 0.531539559 0.191974029 0
vt 0.109559432 0.800044775 0
vt 0.625448287 0.52585578 0
vn 0.0016456265 -0.760031819 -0.649883807
vn 0.610379517 -0.397531629 -0.685131609
vn 0.722758114 -0.0108119054 -0.691016436
vn 0.773340046 -0.593082309 -0.224050462
vn 0.566324353 0.777075827 0.27464509
vn 0.919485629 -0.219767123 0.325957954
vn 0.526186824 0.122081369 0.841560185
vn -0.0104805864 0.335389495 -0.942021251
vn 0.125888824 0.826858401 -0.548140049
vn 0.571033359 -0.440646827 0.692640781
vn -0.0801869556 0.465338498 0.881493092
vn 0.375618875 0.736527979 0.562527299
vn -0.69988066 -0.451655716 0.553330064
vn -0.0174890626 -0.159670725 0.987015307
vn -0.771812975 -0.301226944 -0.559970498
vn -0.502182961 0.0904645398 -0.860016525
vn -0.408283025 0.900244176 0.151212975
vn -0.633991182 -0.669157028 -0.387664437
vn -0.355720878 -0.624244332 -0.695543945
vn -0.842987835 0.511901617 0.165311933
vn -0.635549486 -0.518446386 0.572092891
vn -0.749214649 0.0961321294 0.655313492
g Aset_antique_sculpture_S_ugwicc2hw_LOD8
f 3/1/3 9/2/9 5/3/5
f 7/4/7 4/5/4 5/6/5
f 21/7/21 14/8/14 11/9/11
f 7/10/7 5/11/5 11/9/11
f 13/12/13 10/13/10 6/14/6
f 17/15/17 16/16/16 20/17/20
f 3/1/3 6/18/6 1/19/1
f 9/2/9 3/1/3 16/16/16
f 2/20/2 8/21/8 6/14/6
f 8/22/8 1/19/1 6/18/6
f 6/23/6 4/5/4 7/4/7
f 11/9/11 14/8/14 7/10/7
f 8/22/8 18/24/18 1/19/1
f 18/24/18 21/25/21 19/26/19
f 19/27/19 22/28/22 20/29/20
f 9/2/9 16/16/16 17/15/17
f 18/30/18 8/31/8 13/32/13
f 7/4/7 14/33/14 6/34/6
f 12/35/12 11/9/11 9/36/9
f 16/16/16 18/24/18 19/26/19
f 10/37/10 15/38/15 2/39/2
f 4/5/4 3/40/3 5/6/5
f 17/41/17 11/9/11 12/35/12
f 18/30/18 13/32/13 14/42/14
f 19/26/19 20/43/20 16/16/16
f 12/44/12 9/45/9 17/46/17
f 22/28/22 11/9/11 17/41/17
f 11/9/11 22/28/22 21/7/21
f 10/37/10 13/47/13 15/38/15
f 6/14/6 14/48/14 13/12/13
f 2/20/2 6/14/6 10/13/10
f 16/16/16 1/19/1 18/24/18
f 22/28/22 17/41/17 20/49/20
f 15/50/15 13/32/13 8/31/8
f 6/18/6 3/1/3 4/51/4
f 3/1/3 1/19/1 16/16/16
f 2/52/2 15/50/15 8/31/8
f 18/53/18 14/8/14 21/7/21
f 22/28/22 19/27/19 21/7/21
f 11/9/11 5/11/5 9/36/9
