# File exported by Houdini 17.0.416 (www.sidefx.com)
# 20 points
# 108 vertices
# 36 primitives
# Bounds: [-7.78089666, 0.278392315, -4.27932215] to [6.42573404, 13.2265625, 4.9093976]
g 
v -2.94458532 5.13018036 2.92257071
v -5.6210885 8.6989069 -3.89548349
v -3.74726534 0.491344452 -1.8552438
v -0.715374827 0.723699093 -4.27932215
v -1.5139761 13.0426846 -3.90523767
v -1.96262646 5.34400177 -2.79358435
v 2.80127811 5.46802235 -2.69147873
v -7.78089666 12.0423336 -0.852639794
v -3.0583148 2.9086659 -0.29666853
v 4.4220171 0.432880878 -1.66566122
v 1.67238796 3.28758049 -1.75665987
v 2.52273226 5.50627804 2.51010275
v -1.82081747 13.2265625 1.35920787
v 3.1185813 0.278392315 3.49365711
v 6.21901846 11.3841324 -2.52091694
v 6.42573404 12.6366377 -0.391749024
v -2.15434265 0.457211494 4.17666149
v -3.66027117 7.54863358 4.8303771
v 1.0627135 3.33346367 2.54928017
v 3.02354717 8.37161541 4.9093976
vt 0.86626631 0.827245355 0
vt 0.666460991 0.837704301 0
vt 0.744794846 0.726596713 0
vt 0.625244737 0.689974606 0
vt 0.520386338 0.582202554 0
vt 0.705892146 0.561089754 0
vt 0.693818152 0.29458347 0
vt 0.559460998 0.40429014 0
vt 0.686874449 0.120806523 0
vt 0.458598793 0.0172797069 0
vt 0.462356746 0.264552325 0
vt 0.306496859 0.277058095 0
vt 0.369864464 0.0208927542 0
vt 0.488803923 0.507654428 0
vt 0.344017774 0.48827076 0
vt 0.732719421 0.0517607778 0
vt 0.803376853 0.0128061548 0
vt 0.72123009 0.270033002 0
vt 0.78263849 0.901258469 0
vt 0.577791452 0.742018819 0
vt 0.0900645927 0.436374724 0
vt 0.259230047 0.462000936 0
vt 0.109193429 0.695761621 0
vt 0.368172944 0.546564162 0
vt 0.0154007487 0.343067527 0
vt 0.124525048 0.125783578 0
vt 0.115696982 0.354894042 0
vt 0.886239707 0.274149537 0
vt 0.973227203 0.192950904 0
vt 0.389022499 0.469954699 0
vt 0.904027581 0.439532757 0
vt 0.976958632 0.504068017 0
vt 0.808466554 0.715348601 0
vt 0.616590559 0.509121299 0
vt 0.699042022 0.596586466 0
vt 0.720305502 0.425250143 0
vt 0.297062218 0.629212499 0
vt -0.00120821397 0.152258217 0
vt 0.47493282 0.702750385 0
vt 0.325419635 0.650769591 0
vt 1.0434916 0.785210609 0
vt 0.852473497 0.731607318 0
vt 0.954675078 0.917861998 0
vt 0.0184815675 0.608448505 0
vt 0.669956267 0.913762331 0
vn -0.535660803 -0.65180701 0.536856592
vn -0.611688375 -0.292998374 -0.734839618
vn -0.821499825 -0.41600877 -0.389967412
vn -0.144989043 -0.251302928 -0.95698756
vn -0.0298977196 0.670794606 -0.741040349
vn -0.35893178 -0.534728885 -0.765005231
vn 0.612174869 -0.451426119 -0.649196744
vn -0.909126401 0.416515827 -0.00192462909
vn -0.968518555 0.218607187 -0.119090237
vn 0.882438183 -0.322944224 -0.342067152
vn 0.686098814 0.150829151 -0.711701334
vn 0.670742631 -0.558713794 0.487793952
vn -0.105514966 0.881711423 0.45983848
vn 0.656199217 -0.387408376 0.647547364
vn 0.821142614 0.0921268091 -0.563238263
vn 0.825590134 0.543792427 0.150634795
vn -0.510930717 -0.317408621 0.798875332
vn -0.475777537 -0.137359127 0.868773878
vn 0.43189168 0.194079876 0.880796492
vn 0.482988209 -0.0312307496 0.875069797
g Aset_antique_sculpture_S_ugthchqva_LOD8
f 9/1/9 11/2/11 4/3/4
f 17/4/17 19/5/19 9/6/9
f 6/7/6 2/8/2 7/9/7
f 15/10/15 7/9/7 5/11/5
f 13/12/13 16/13/16 5/11/5
f 12/14/12 19/5/19 7/15/7
f 15/16/15 16/17/16 7/18/7
f 9/1/9 6/19/6 11/2/11
f 11/2/11 10/20/10 4/3/4
f 10/21/10 14/22/14 3/23/3
f 19/5/19 11/24/11 7/15/7
f 1/25/1 20/26/20 18/27/18
f 12/28/12 16/17/16 20/29/20
f 5/11/5 2/8/2 8/30/8
f 13/12/13 20/26/20 16/13/16
f 1/31/1 18/32/18 8/33/8
f 9/6/9 19/5/19 1/34/1
f 2/35/2 6/36/6 1/31/1
f 17/37/17 3/23/3 14/22/14
f 1/31/1 8/33/8 2/35/2
f 12/38/12 20/26/20 1/25/1
f 20/26/20 13/12/13 18/27/18
f 13/12/13 5/11/5 8/30/8
f 5/11/5 7/9/7 2/8/2
f 14/39/14 10/40/10 19/5/19
f 17/41/17 9/1/9 3/42/3
f 7/18/7 16/17/16 12/28/12
f 5/11/5 16/13/16 15/10/15
f 1/43/1 6/19/6 9/1/9
f 4/44/4 10/21/10 3/23/3
f 7/45/7 11/2/11 6/19/6
f 19/5/19 10/40/10 11/24/11
f 19/5/19 12/14/12 1/34/1
f 19/5/19 17/4/17 14/39/14
f 13/12/13 8/30/8 18/27/18
f 4/3/4 3/42/3 9/1/9
